<?xml version="1.0" standalone="no"?>
<!DOCTYPE svg PUBLIC "-//W3C//DTD SVG 20010904//EN"
 "http://www.w3.org/TR/2001/REC-SVG-20010904/DTD/svg10.dtd">
<svg version="1.0" xmlns="http://www.w3.org/2000/svg"
 width="400.000000pt" height="400.000000pt" viewBox="0 0 400.000000 400.000000"
 preserveAspectRatio="xMidYMid meet">
<metadata>
Created by potrace 1.14, written by Peter Selinger 2001-2017
</metadata>
<g transform="translate(0.000000,400.000000) scale(0.100000,-0.100000)"
fill="#000000" stroke="none">
<path d="M161 3983 c-53 -19 -116 -80 -141 -136 -18 -40 -18 -112 -19 -1832 0
-1047 3 -1806 9 -1829 13 -56 58 -116 115 -151 l48 -30 1821 0 1821 0 49 25
c27 14 61 40 77 60 63 76 60 -51 57 1931 l-3 1804 -28 47 c-15 26 -43 59 -62
74 -75 57 26 54 -1914 53 -1584 0 -1791 -2 -1830 -16z"/>
</g>
</svg>
